<svg width="24" height="20" viewBox="0 0 24 20" fill="none" xmlns="http://www.w3.org/2000/svg">
    <path fill-rule="evenodd" clip-rule="evenodd"
          d="M20.152 15.586L17.0485 14.0325C16.9244 13.9704 16.8623 13.8772 16.8623 13.7529C16.8623 13.6286 16.9244 13.5354 17.0175 13.4733L20.1209 11.9198C20.214 11.8887 20.3071 11.8887 20.4002 11.9198L23.5037 13.4733C23.6278 13.5354 23.6899 13.6286 23.6899 13.7529C23.6899 13.8772 23.6278 13.9704 23.5037 14.0325L20.4002 15.586C20.3692 15.6171 20.3382 15.6171 20.2761 15.6171C20.214 15.6171 20.183 15.6171 20.152 15.586ZM22.6968 13.7529L20.2761 12.5412L17.8554 13.7529L20.2761 14.9646L22.6968 13.7529ZM23.6589 16.7356C23.7209 16.891 23.6589 17.0774 23.5347 17.1395L20.4313 18.693C20.3692 18.7241 20.3382 18.7241 20.2761 18.7241C20.214 18.7241 20.183 18.7241 20.152 18.693L17.0485 17.1395C16.8933 17.0774 16.8313 16.891 16.9244 16.7356C16.9864 16.5803 17.1726 16.5181 17.3278 16.6113L20.3071 18.1027L23.2864 16.6113C23.3795 16.5181 23.5658 16.5803 23.6589 16.7356ZM23.5347 15.586C23.6589 15.5239 23.7209 15.3375 23.6589 15.1821C23.5658 15.0268 23.3795 14.9646 23.2864 15.0578L20.3071 16.5492L17.3278 15.0578C17.1726 14.9646 16.9864 15.0268 16.9244 15.1821C16.8313 15.3375 16.8933 15.5239 17.0485 15.586L20.152 17.1395C20.183 17.1706 20.214 17.1706 20.2761 17.1706C20.3382 17.1706 20.3692 17.1706 20.4313 17.1395L23.5347 15.586Z"
          fill="black"/>
    <mask id="mask0_570_22078" style="mask-type:alpha" maskUnits="userSpaceOnUse" x="16" y="11" width="8" height="8">
        <path fill-rule="evenodd" clip-rule="evenodd"
              d="M20.152 15.586L17.0485 14.0325C16.9244 13.9704 16.8623 13.8772 16.8623 13.7529C16.8623 13.6286 16.9244 13.5354 17.0175 13.4733L20.1209 11.9198C20.214 11.8887 20.3071 11.8887 20.4002 11.9198L23.5037 13.4733C23.6278 13.5354 23.6899 13.6286 23.6899 13.7529C23.6899 13.8772 23.6278 13.9704 23.5037 14.0325L20.4002 15.586C20.3692 15.6171 20.3382 15.6171 20.2761 15.6171C20.214 15.6171 20.183 15.6171 20.152 15.586ZM22.6968 13.7529L20.2761 12.5412L17.8554 13.7529L20.2761 14.9646L22.6968 13.7529ZM23.6589 16.7356C23.7209 16.891 23.6589 17.0774 23.5347 17.1395L20.4313 18.693C20.3692 18.7241 20.3382 18.7241 20.2761 18.7241C20.214 18.7241 20.183 18.7241 20.152 18.693L17.0485 17.1395C16.8933 17.0774 16.8313 16.891 16.9244 16.7356C16.9864 16.5803 17.1726 16.5181 17.3278 16.6113L20.3071 18.1027L23.2864 16.6113C23.3795 16.5181 23.5658 16.5803 23.6589 16.7356ZM23.5347 15.586C23.6589 15.5239 23.7209 15.3375 23.6589 15.1821C23.5658 15.0268 23.3795 14.9646 23.2864 15.0578L20.3071 16.5492L17.3278 15.0578C17.1726 14.9646 16.9864 15.0268 16.9244 15.1821C16.8313 15.3375 16.8933 15.5239 17.0485 15.586L20.152 17.1395C20.183 17.1706 20.214 17.1706 20.2761 17.1706C20.3382 17.1706 20.3692 17.1706 20.4313 17.1395L23.5347 15.586Z"
              fill="white"/>
    </mask>
    <g mask="url(#mask0_570_22078)">
        <rect x="16.5518" y="11.5859" width="7.44828" height="7.44828" fill="white"/>
    </g>
    <path fill-rule="evenodd" clip-rule="evenodd"
          d="M9.93109 0.827148C4.88281 0.827148 0.827637 4.88232 0.827637 9.9306C0.827637 14.9789 4.88281 19.034 9.93109 19.034C14.9794 19.034 19.0345 14.9789 19.0345 9.9306C19.0345 4.88232 14.9794 0.827148 9.93109 0.827148ZM9.93109 17.3789C5.79315 17.3789 2.48281 14.0685 2.48281 9.9306C2.48281 5.79267 5.79315 2.48232 9.93109 2.48232C14.069 2.48232 17.3794 5.79267 17.3794 9.9306C17.3794 14.0685 14.069 17.3789 9.93109 17.3789ZM12.9932 12.9927C13.3242 12.6616 13.3242 12.1651 12.9932 11.834L10.7587 9.59956V4.96508C10.7587 4.46853 10.4276 4.13749 9.93109 4.13749C9.43453 4.13749 9.1035 4.46853 9.1035 4.96508V9.9306C9.1035 10.1789 9.18626 10.3444 9.35178 10.5099L11.8345 12.9927C12.0001 13.1582 12.1656 13.2409 12.4138 13.2409C12.6621 13.2409 12.8276 13.1582 12.9932 12.9927Z"
          fill="black"/>
    <mask id="mask1_570_22078" style="mask-type:alpha" maskUnits="userSpaceOnUse" x="0" y="0" width="20" height="20">
        <path fill-rule="evenodd" clip-rule="evenodd"
              d="M9.93109 0.827148C4.88281 0.827148 0.827637 4.88232 0.827637 9.9306C0.827637 14.9789 4.88281 19.034 9.93109 19.034C14.9794 19.034 19.0345 14.9789 19.0345 9.9306C19.0345 4.88232 14.9794 0.827148 9.93109 0.827148ZM9.93109 17.3789C5.79315 17.3789 2.48281 14.0685 2.48281 9.9306C2.48281 5.79267 5.79315 2.48232 9.93109 2.48232C14.069 2.48232 17.3794 5.79267 17.3794 9.9306C17.3794 14.0685 14.069 17.3789 9.93109 17.3789ZM12.9932 12.9927C13.3242 12.6616 13.3242 12.1651 12.9932 11.834L10.7587 9.59956V4.96508C10.7587 4.46853 10.4276 4.13749 9.93109 4.13749C9.43453 4.13749 9.1035 4.46853 9.1035 4.96508V9.9306C9.1035 10.1789 9.18626 10.3444 9.35178 10.5099L11.8345 12.9927C12.0001 13.1582 12.1656 13.2409 12.4138 13.2409C12.6621 13.2409 12.8276 13.1582 12.9932 12.9927Z"
              fill="white"/>
    </mask>
    <g mask="url(#mask1_570_22078)">
        <rect x="-0.827637" y="-0.827148" width="19.8621" height="19.8621" fill="white"/>
    </g>
</svg>
