<svg width="16" height="16" viewBox="0 0 20 20" fill="none" xmlns="http://www.w3.org/2000/svg">
    <circle cx="10" cy="10" r="10" fill="#C70707"/>
    <path d="M8.65449 3.4H11.0665V9.322L10.5985 12.256H9.12249L8.65449 9.322V3.4ZM8.40249 14.812C8.40249 14.392 8.53449 14.062 8.79849 13.822C9.06249 13.57 9.41049 13.444 9.84249 13.444C10.2985 13.444 10.6585 13.57 10.9225 13.822C11.1865 14.062 11.3185 14.392 11.3185 14.812C11.3185 15.232 11.1865 15.568 10.9225 15.82C10.6585 16.072 10.2985 16.198 9.84249 16.198C9.41049 16.198 9.06249 16.072 8.79849 15.82C8.53449 15.568 8.40249 15.232 8.40249 14.812Z"
          fill="white"/>
</svg>
