<svg width="24" height="24" viewBox="5 5 24 24" fill="none" xmlns="http://www.w3.org/2000/svg">
    <path fill-rule="evenodd" clip-rule="evenodd"
          d="M9.19224 9.19253C4.87889 13.5059 4.87889 20.4355 9.19224 24.7489C13.5056 29.0622 20.4352 29.0622 24.7486 24.7489C29.0619 20.4355 29.0619 13.5059 24.7486 9.19253C20.4352 4.87918 13.5056 4.87918 9.19224 9.19253ZM23.3344 23.3347C19.7988 26.8702 14.142 26.8702 10.6065 23.3347C7.07092 19.7991 7.07092 14.1423 10.6065 10.6067C14.142 7.07121 19.7988 7.07121 23.3344 10.6067C26.8699 14.1423 26.8699 19.7991 23.3344 23.3347ZM17.9604 15.9808V12.7281C17.9604 12.1624 17.5361 11.7381 16.9704 11.7381C16.4047 11.7381 15.9805 12.1624 15.9805 12.7281V15.9808H12.7278C12.1621 15.9808 11.7378 16.405 11.7378 16.9707C11.7378 17.5364 12.1621 17.9607 12.7278 17.9607H15.9805V21.2133C15.9805 21.779 16.4047 22.2033 16.9704 22.2033C17.2533 22.2033 17.4654 22.1326 17.6775 21.9205C17.8897 21.7083 17.9604 21.4962 17.9604 21.2133V17.9607H21.2131C21.4959 17.9607 21.708 17.8899 21.9202 17.6778C22.1323 17.4657 22.203 17.2535 22.203 16.9707C22.203 16.405 21.7787 15.9808 21.2131 15.9808H17.9604Z"
          fill="white"/>
</svg>
