<svg width="26" height="26" viewBox="0 0 26 26" fill="none" xmlns="http://www.w3.org/2000/svg">
    <path fill-rule="evenodd" clip-rule="evenodd"
          d="M12.5668 13.9627L1.7335 8.53989C1.30016 8.32297 1.0835 7.9976 1.0835 7.56378C1.0835 7.12995 1.30016 6.80458 1.62516 6.58767L12.4585 1.16484C12.7835 1.05638 13.1085 1.05638 13.4335 1.16484L24.2668 6.58767C24.7002 6.80458 24.9168 7.12995 24.9168 7.56378C24.9168 7.9976 24.7002 8.32297 24.2668 8.53989L13.4335 13.9627C13.3252 14.0712 13.2168 14.0712 13.0002 14.0712C12.7835 14.0712 12.6752 14.0712 12.5668 13.9627ZM21.4502 7.56378L13.0002 3.33397L4.55016 7.56378L13.0002 11.7936L21.4502 7.56378ZM24.8085 17.9756C25.0252 18.5179 24.8085 19.1686 24.3752 19.3855L13.5418 24.8084C13.3252 24.9168 13.2168 24.9168 13.0002 24.9168C12.7835 24.9168 12.6752 24.9168 12.5668 24.8084L1.7335 19.3855C1.19183 19.1686 0.975163 18.5179 1.30016 17.9756C1.51683 17.4333 2.16683 17.2164 2.7085 17.5418L13.1085 22.7477L23.5085 17.5418C23.8335 17.2164 24.4835 17.4333 24.8085 17.9756ZM24.3752 13.9627C24.8085 13.7458 25.0252 13.0951 24.8085 12.5528C24.4835 12.0105 23.8335 11.7936 23.5085 12.119L13.1085 17.3249L2.7085 12.119C2.16683 11.7936 1.51683 12.0105 1.30016 12.5528C0.975163 13.0951 1.19183 13.7458 1.7335 13.9627L12.5668 19.3855C12.6752 19.494 12.7835 19.494 13.0002 19.494C13.2168 19.494 13.3252 19.494 13.5418 19.3855L24.3752 13.9627Z"
          fill="white"/>
</svg>
