<?xml version="1.0" encoding="utf-8"?>
<svg xmlns="http://www.w3.org/2000/svg"
     style="margin: auto; background: transparent; display: block; shape-rendering: auto;" width="100px" height="100px"
     viewBox="24 24 53 53" preserveAspectRatio="xMidYMid">

    <rect x="47" y="24" rx="3" ry="6" width="6" height="12" fill="#07abcc" transform="rotate(0 50 50)">
        <animate attributeName="opacity" values="1;0" keyTimes="0;1" dur="1s" begin="-0.916s"
                 repeatCount="indefinite"/>
    </rect>
    <rect x="47" y="24" rx="3" ry="6" width="6" height="12" fill="#07abcc" transform="rotate(30 50 50)">
        <animate attributeName="opacity" values="1;0" keyTimes="0;1" dur="1s" begin="-0.833s"
                 repeatCount="indefinite"/>
    </rect>
    <rect x="47" y="24" rx="3" ry="6" width="6" height="12" fill="#07abcc" transform="rotate(60 50 50)">
        <animate attributeName="opacity" values="1;0" keyTimes="0;1" dur="1s" begin="-0.75s"
                 repeatCount="indefinite"/>
    </rect>
    <rect x="47" y="24" rx="3" ry="6" width="6" height="12" fill="#07abcc" transform="rotate(90 50 50)">
        <animate attributeName="opacity" values="1;0" keyTimes="0;1" dur="1s" begin="-0.666s"
                 repeatCount="indefinite"/>
    </rect>
    <rect x="47" y="24" rx="3" ry="6" width="6" height="12" fill="#07abcc" transform="rotate(120 50 50)">
        <animate attributeName="opacity" values="1;0" keyTimes="0;1" dur="1s" begin="-0.583s"
                 repeatCount="indefinite"/>
    </rect>
    <rect x="47" y="24" rx="3" ry="6" width="6" height="12" fill="#07abcc" transform="rotate(150 50 50)">
        <animate attributeName="opacity" values="1;0" keyTimes="0;1" dur="1s" begin="-0.5s"
                 repeatCount="indefinite"/>
    </rect>
    <rect x="47" y="24" rx="3" ry="6" width="6" height="12" fill="#07abcc" transform="rotate(180 50 50)">
        <animate attributeName="opacity" values="1;0" keyTimes="0;1" dur="1s" begin="-0.416s"
                 repeatCount="indefinite"/>
    </rect>
    <rect x="47" y="24" rx="3" ry="6" width="6" height="12" fill="#07abcc" transform="rotate(210 50 50)">
        <animate attributeName="opacity" values="1;0" keyTimes="0;1" dur="1s" begin="-0.333s"
                 repeatCount="indefinite"/>
    </rect>
    <rect x="47" y="24" rx="3" ry="6" width="6" height="12" fill="#07abcc" transform="rotate(240 50 50)">
        <animate attributeName="opacity" values="1;0" keyTimes="0;1" dur="1s" begin="-0.25s"
                 repeatCount="indefinite"/>
    </rect>
    <rect x="47" y="24" rx="3" ry="6" width="6" height="12" fill="#07abcc" transform="rotate(270 50 50)">
        <animate attributeName="opacity" values="1;0" keyTimes="0;1" dur="1s" begin="-0.166s"
                 repeatCount="indefinite"/>
    </rect>
    <rect x="47" y="24" rx="3" ry="6" width="6" height="12" fill="#07abcc" transform="rotate(300 50 50)">
        <animate attributeName="opacity" values="1;0" keyTimes="0;1" dur="1s" begin="-0.083s"
                 repeatCount="indefinite"/>
    </rect>
    <rect x="47" y="24" rx="3" ry="6" width="6" height="12" fill="#07abcc" transform="rotate(330 50 50)">
        <animate attributeName="opacity" values="1;0" keyTimes="0;1" dur="1s" begin="0s"
                 repeatCount="indefinite"/>
    </rect>
    <!-- [ldio] generated by https://loading.io/ -->
</svg>
