<svg width="47" height="47" viewBox="0 0 47 47" fill="none" xmlns="http://www.w3.org/2000/svg">
<g filter="url(#filter0_i_1243_22730)">
<path fill-rule="evenodd" clip-rule="evenodd" d="M26.32 0L47 20.68V37.6C47 42.7915 42.7915 47 37.6 47H21.0694L0 25.9306V9.4C0 4.20852 4.20852 0 9.4 0H26.32ZM27.6494 0H37.6C42.7915 0 47 4.20852 47 9.4V19.3506L27.6494 0ZM0 27.26L19.74 47H9.4C4.20852 47 0 42.7915 0 37.6V27.26Z" fill="white"/>
<path d="M13.5212 16.0702H7.62549V12.5959H23.6807V16.0702H17.785V31.0199H13.5212V16.0702Z" fill="#023E8A"/>
<path d="M29.5011 20.7701H23.6055V17.2959H39.6607V20.7701H33.765V35.7199H29.5011V20.7701Z" fill="#023E8A"/>
</g>
<defs>
<filter id="filter0_i_1243_22730" x="0" y="0" width="47" height="51" filterUnits="userSpaceOnUse" color-interpolation-filters="sRGB">
<feFlood flood-opacity="0" result="BackgroundImageFix"/>
<feBlend mode="normal" in="SourceGraphic" in2="BackgroundImageFix" result="shape"/>
<feColorMatrix in="SourceAlpha" type="matrix" values="0 0 0 0 0 0 0 0 0 0 0 0 0 0 0 0 0 0 127 0" result="hardAlpha"/>
<feOffset dy="4"/>
<feGaussianBlur stdDeviation="2"/>
<feComposite in2="hardAlpha" operator="arithmetic" k2="-1" k3="1"/>
<feColorMatrix type="matrix" values="0 0 0 0 0 0 0 0 0 0 0 0 0 0 0 0 0 0 0.25 0"/>
<feBlend mode="normal" in2="shape" result="effect1_innerShadow_1243_22730"/>
</filter>
</defs>
</svg>
