<svg width="38" height="38" viewBox="0 0 38 38" fill="none" xmlns="http://www.w3.org/2000/svg">
    <path fill-rule="evenodd" clip-rule="evenodd"
          d="M31.6668 9.50033H26.9168V7.91699C26.9168 5.22533 24.8585 3.16699 22.1668 3.16699H15.8335C13.1418 3.16699 11.0835 5.22533 11.0835 7.91699V9.50033H6.3335C3.64183 9.50033 1.5835 11.5587 1.5835 14.2503V30.0837C1.5835 32.7753 3.64183 34.8337 6.3335 34.8337H31.6668C34.3585 34.8337 36.4168 32.7753 36.4168 30.0837V14.2503C36.4168 11.5587 34.3585 9.50033 31.6668 9.50033ZM14.2502 7.91699C14.2502 6.96699 14.8835 6.33366 15.8335 6.33366H22.1668C23.1168 6.33366 23.7502 6.96699 23.7502 7.91699V9.50033H14.2502V7.91699ZM23.7502 31.667V12.667H14.2502V31.667H23.7502ZM4.75016 30.0837V14.2503C4.75016 13.3003 5.3835 12.667 6.3335 12.667H11.0835V31.667H6.3335C5.3835 31.667 4.75016 31.0337 4.75016 30.0837ZM31.6668 31.667C32.6168 31.667 33.2502 31.0337 33.2502 30.0837V14.2503C33.2502 13.3003 32.6168 12.667 31.6668 12.667H26.9168V31.667H31.6668Z"
          fill="black"/>
    <mask id="mask0_570_21891" style="mask-type:alpha" maskUnits="userSpaceOnUse" x="1" y="3" width="36" height="32">
        <path fill-rule="evenodd" clip-rule="evenodd"
              d="M31.6668 9.50033H26.9168V7.91699C26.9168 5.22533 24.8585 3.16699 22.1668 3.16699H15.8335C13.1418 3.16699 11.0835 5.22533 11.0835 7.91699V9.50033H6.3335C3.64183 9.50033 1.5835 11.5587 1.5835 14.2503V30.0837C1.5835 32.7753 3.64183 34.8337 6.3335 34.8337H31.6668C34.3585 34.8337 36.4168 32.7753 36.4168 30.0837V14.2503C36.4168 11.5587 34.3585 9.50033 31.6668 9.50033ZM14.2502 7.91699C14.2502 6.96699 14.8835 6.33366 15.8335 6.33366H22.1668C23.1168 6.33366 23.7502 6.96699 23.7502 7.91699V9.50033H14.2502V7.91699ZM23.7502 31.667V12.667H14.2502V31.667H23.7502ZM4.75016 30.0837V14.2503C4.75016 13.3003 5.3835 12.667 6.3335 12.667H11.0835V31.667H6.3335C5.3835 31.667 4.75016 31.0337 4.75016 30.0837ZM31.6668 31.667C32.6168 31.667 33.2502 31.0337 33.2502 30.0837V14.2503C33.2502 13.3003 32.6168 12.667 31.6668 12.667H26.9168V31.667H31.6668Z"
              fill="white"/>
    </mask>
    <g mask="url(#mask0_570_21891)">
        <rect width="38" height="38" fill="black"/>
    </g>
</svg>
