<svg width="34" height="34" viewBox="0 0 34 34" fill="none" xmlns="http://www.w3.org/2000/svg">
<mask id="mask0_570_22247" style="mask-type:alpha" maskUnits="userSpaceOnUse" x="4" y="1" width="26" height="32">
<path fill-rule="evenodd" clip-rule="evenodd" d="M29.2663 10.5545C29.3015 10.6253 29.3367 10.6962 29.407 10.767C29.5477 10.9087 29.5477 11.192 29.5477 11.3337V28.3337C29.5477 30.742 27.7186 32.5837 25.3266 32.5837H8.44228C6.05033 32.5837 4.22119 30.742 4.22119 28.3337V5.66699C4.22119 3.25866 6.05033 1.41699 8.44228 1.41699H19.6985C19.8392 1.41699 20.1206 1.41699 20.2613 1.55866C20.402 1.55866 20.5427 1.70033 20.6834 1.84199L29.1256 10.342C29.196 10.4128 29.2311 10.4837 29.2663 10.5545ZM24.7638 9.91699L21.1055 6.23366V9.91699H24.7638ZM25.3266 29.7503H8.44228C7.59806 29.7503 7.03525 29.1837 7.03525 28.3337V5.66699C7.03525 4.81699 7.59806 4.25033 8.44228 4.25033H18.2915V11.3337C18.2915 12.1837 18.8543 12.7503 19.6985 12.7503H26.7337V28.3337C26.7337 29.1837 26.1709 29.7503 25.3266 29.7503ZM22.5126 19.8337C23.3568 19.8337 23.9196 19.267 23.9196 18.417C23.9196 17.567 23.3568 17.0003 22.5126 17.0003H11.2563C10.4121 17.0003 9.84931 17.567 9.84931 18.417C9.84931 19.267 10.4121 19.8337 11.2563 19.8337H22.5126ZM23.9196 24.0837C23.9196 24.9337 23.3568 25.5003 22.5126 25.5003H11.2563C10.4121 25.5003 9.84931 24.9337 9.84931 24.0837C9.84931 23.2337 10.4121 22.667 11.2563 22.667H22.5126C23.3568 22.667 23.9196 23.2337 23.9196 24.0837ZM11.2563 11.3337C10.4121 11.3337 9.84931 11.9003 9.84931 12.7503C9.84931 13.6003 10.4121 14.167 11.2563 14.167H14.0704C14.9146 14.167 15.4774 13.6003 15.4774 12.7503C15.4774 11.9003 14.9146 11.3337 14.0704 11.3337H11.2563Z" fill="white"/>
</mask>
<g mask="url(#mask0_570_22247)">
<rect width="33.7687" height="34" fill="white"/>
</g>
</svg>
