<svg width="34" height="34" viewBox="0 0 34 34" fill="none" xmlns="http://www.w3.org/2000/svg">
<path fill-rule="evenodd" clip-rule="evenodd" d="M1.41666 17.0003C1.41666 25.642 8.35832 32.5837 17 32.5837C25.6417 32.5837 32.5833 25.642 32.5833 17.0003C32.5833 8.35866 25.6417 1.41699 17 1.41699C8.35832 1.41699 1.41666 8.35866 1.41666 17.0003ZM4.24999 17.0003C4.24999 9.91699 9.91666 4.25033 17 4.25033C24.0833 4.25033 29.75 9.91699 29.75 17.0003C29.75 24.0837 24.0833 29.7503 17 29.7503C9.91666 29.7503 4.24999 24.0837 4.24999 17.0003ZM18.4167 17.0003V11.3337C18.4167 10.4837 17.85 9.91699 17 9.91699C16.15 9.91699 15.5833 10.4837 15.5833 11.3337V17.0003C15.5833 17.8503 16.15 18.417 17 18.417C17.85 18.417 18.4167 17.8503 18.4167 17.0003ZM18.275 23.2337C18.275 23.3753 18.1333 23.517 17.9917 23.6587C17.7083 23.942 17.425 24.0837 16.8583 24.0837C16.4333 24.0837 16.15 23.942 15.8667 23.6587C15.5833 23.3753 15.4417 23.092 15.4417 22.667C15.4417 22.501 15.4903 22.3837 15.5305 22.2864C15.559 22.2177 15.5833 22.159 15.5833 22.1003C15.5833 21.9587 15.725 21.817 15.8667 21.6753C16.2917 21.2503 16.8583 21.1087 17.425 21.392C17.4958 21.392 17.5312 21.4274 17.5667 21.4628C17.6021 21.4982 17.6375 21.5337 17.7083 21.5337C17.85 21.5337 17.9917 21.6753 17.9917 21.6753C18.0625 21.7462 18.0979 21.817 18.1333 21.8878C18.1687 21.9587 18.2042 22.0295 18.275 22.1003C18.4167 22.242 18.4167 22.5253 18.4167 22.667C18.4167 22.7378 18.3812 22.8441 18.3458 22.9503C18.3104 23.0566 18.275 23.1628 18.275 23.2337Z" fill="black"/>
<mask id="mask0_472_22000" style="mask-type:alpha" maskUnits="userSpaceOnUse" x="1" y="1" width="32" height="32">
<path fill-rule="evenodd" clip-rule="evenodd" d="M1.41666 17.0003C1.41666 25.642 8.35832 32.5837 17 32.5837C25.6417 32.5837 32.5833 25.642 32.5833 17.0003C32.5833 8.35866 25.6417 1.41699 17 1.41699C8.35832 1.41699 1.41666 8.35866 1.41666 17.0003ZM4.24999 17.0003C4.24999 9.91699 9.91666 4.25033 17 4.25033C24.0833 4.25033 29.75 9.91699 29.75 17.0003C29.75 24.0837 24.0833 29.7503 17 29.7503C9.91666 29.7503 4.24999 24.0837 4.24999 17.0003ZM18.4167 17.0003V11.3337C18.4167 10.4837 17.85 9.91699 17 9.91699C16.15 9.91699 15.5833 10.4837 15.5833 11.3337V17.0003C15.5833 17.8503 16.15 18.417 17 18.417C17.85 18.417 18.4167 17.8503 18.4167 17.0003ZM18.275 23.2337C18.275 23.3753 18.1333 23.517 17.9917 23.6587C17.7083 23.942 17.425 24.0837 16.8583 24.0837C16.4333 24.0837 16.15 23.942 15.8667 23.6587C15.5833 23.3753 15.4417 23.092 15.4417 22.667C15.4417 22.501 15.4903 22.3837 15.5305 22.2864C15.559 22.2177 15.5833 22.159 15.5833 22.1003C15.5833 21.9587 15.725 21.817 15.8667 21.6753C16.2917 21.2503 16.8583 21.1087 17.425 21.392C17.4958 21.392 17.5312 21.4274 17.5667 21.4628C17.6021 21.4982 17.6375 21.5337 17.7083 21.5337C17.85 21.5337 17.9917 21.6753 17.9917 21.6753C18.0625 21.7462 18.0979 21.817 18.1333 21.8878C18.1687 21.9587 18.2042 22.0295 18.275 22.1003C18.4167 22.242 18.4167 22.5253 18.4167 22.667C18.4167 22.7378 18.3812 22.8441 18.3458 22.9503C18.3104 23.0566 18.275 23.1628 18.275 23.2337Z" fill="white"/>
</mask>
<g mask="url(#mask0_472_22000)">
<rect width="34" height="34" fill="white"/>
</g>
</svg>
