<svg width="20" height="20" viewBox="0 0 20 20" fill="none" xmlns="http://www.w3.org/2000/svg">
    <g opacity="0.9">
        <mask id="mask0_424_35237" style="mask-type:alpha" x="0" y="0" width="20" height="20">
            <path fill-rule="evenodd" clip-rule="evenodd"
                  d="M11.1302 5.18653C11.3813 4.51682 11.5487 3.7634 11.6325 3.00997C11.7999 1.75427 12.8882 0.833414 14.1439 0.833414H16.6553C17.325 0.833414 17.911 1.16827 18.4133 1.58684C18.9156 2.00541 19.1667 2.67512 19.1667 3.34483V3.59597C18.9156 6.27481 17.9947 8.95366 16.4879 11.2139C15.1484 13.3068 13.3067 15.1485 11.2139 16.4879C8.95362 17.911 6.27477 18.9156 3.59593 19.1667C2.92622 19.1667 2.25651 18.9993 1.75423 18.5808C1.25194 18.1622 0.917088 17.5762 0.833374 16.9065V16.6553L0.833374 14.1439C0.833374 12.8882 1.75423 11.7999 3.00993 11.6325C3.76336 11.5488 4.51678 11.3814 5.18649 11.1302C6.10735 10.7954 7.19563 11.0465 7.86534 11.7162L8.45133 12.3022C10.0419 11.2976 11.2976 9.95822 12.3022 8.45138L11.7162 7.86538C11.0465 7.11195 10.7953 6.10739 11.1302 5.18653ZM16.6553 2.50769H14.1439C13.7253 2.50769 13.3905 2.84255 13.3067 3.1774C13.1393 4.01454 12.9719 4.85168 12.637 5.68882C12.4696 6.02367 12.5533 6.35853 12.8045 6.60967L13.8927 7.69795C14.2276 7.94909 14.2276 8.36766 14.0602 8.70252C12.8045 10.9628 10.9628 12.8045 8.70248 14.0602C8.36762 14.2276 7.94905 14.1439 7.69791 13.8928L6.69334 12.8045C6.4422 12.6371 6.10735 12.5534 5.77249 12.6371C5.01907 12.9719 4.09821 13.2231 3.26108 13.3068C2.84251 13.3905 2.50765 13.7253 2.50765 14.1439V16.6553C2.50765 16.9065 2.67508 17.1576 2.84251 17.325C3.00993 17.4088 3.17736 17.4925 3.4285 17.4925C5.85621 17.2413 8.20019 16.4042 10.293 15.0648C12.2185 13.8091 13.8927 12.2185 15.0647 10.2931C16.4042 8.20023 17.2413 5.85624 17.4924 3.42854C17.4924 3.09369 17.4087 2.92626 17.2413 2.75883C17.0739 2.5914 16.9064 2.50769 16.6553 2.50769Z"
                  fill="white"/>
        </mask>
        <g mask="url(#mask0_424_35237)">
            <rect y="20" width="20" height="20" transform="rotate(-90 0 20)" fill="#023E8A"/>
        </g>
    </g>
</svg>
